HIERARCHY
ROOT Hips
{
  OFFSET 263.056 91.6644 -274.608
  CHANNELS 6 Xposition Yposition Zposition Zrotation Xrotation Yrotation
  JOINT LeftUpLeg
  {
    OFFSET 8.64259 1.95398 -2.38835
    CHANNELS 3 Zrotation Xrotation Yrotation
    JOINT LeftLeg
    {
      OFFSET 43.7702 0 0
      CHANNELS 3 Zrotation Xrotation Yrotation
      JOINT LeftFoot
      {
        OFFSET 40.6238 0 0
        CHANNELS 3 Zrotation Xrotation Yrotation
        JOINT LeftToeBase
        {
          OFFSET 12.7242 0 0
          CHANNELS 3 Zrotation Xrotation Yrotation
          End Site
          {
            OFFSET 0 0 0
          }
        }
      }
    }
  }
  JOINT RightUpLeg
  {
    OFFSET -8.2249 1.95398 -2.59336
    CHANNELS 3 Zrotation Xrotation Yrotation
    JOINT RightLeg
    {
      OFFSET 43.5653 0 0
      CHANNELS 3 Zrotation Xrotation Yrotation
      JOINT RightFoot
      {
        OFFSET 40.6238 0 0
        CHANNELS 3 Zrotation Xrotation Yrotation
        JOINT RightToeBase
        {
          OFFSET 12.7242 0 0
          CHANNELS 3 Zrotation Xrotation Yrotation
          End Site
          {
            OFFSET 0 0 0
          }
        }
      }
    }
  }
  JOINT Spine
  {
    OFFSET 0.165834 0.87714 6.61349
    CHANNELS 3 Zrotation Xrotation Yrotation
    JOINT Spine1
    {
      OFFSET 7.38963 1.71661e-005 0
      CHANNELS 3 Zrotation Xrotation Yrotation
      JOINT Spine2
      {
        OFFSET 11.9445 1.14441e-005 0
        CHANNELS 3 Zrotation Xrotation Yrotation
        JOINT Spine3
        {
          OFFSET 14.7254 4.19617e-005 0
          CHANNELS 3 Zrotation Xrotation Yrotation
          JOINT Spine4
          {
            OFFSET 10.9679 0 0
            CHANNELS 3 Zrotation Xrotation Yrotation
            JOINT RightShoulder
            {
              OFFSET 2.46616 -1.6653 3.69651
              CHANNELS 3 Zrotation Xrotation Yrotation
              JOINT RightArm
              {
                OFFSET 13.0012 0 0
                CHANNELS 3 Zrotation Xrotation Yrotation
                JOINT RightForeArm
                {
                  OFFSET 28.7848 1.52588e-005 0
                  CHANNELS 3 Zrotation Xrotation Yrotation
                  JOINT RightHand
                  {
                    OFFSET 26.5688 1.52588e-005 0
                    CHANNELS 3 Zrotation Xrotation Yrotation
                    End Site
                    {
                      OFFSET 0 0 0
                    }
                  }
                }
              }
            }
            JOINT LeftShoulder
            {
              OFFSET 2.38034 -1.29275 -3.7523
              CHANNELS 3 Zrotation Xrotation Yrotation
              JOINT LeftArm
              {
                OFFSET 16.3182 6.10352e-005 0
                CHANNELS 3 Zrotation Xrotation Yrotation
                JOINT LeftForeArm
                {
                  OFFSET 27.0901 0 0
                  CHANNELS 3 Zrotation Xrotation Yrotation
                  JOINT LeftHand
                  {
                    OFFSET 24.5451 1.52588e-005 0
                    CHANNELS 3 Zrotation Xrotation Yrotation
                    End Site
                    {
                      OFFSET 0 0 0
                    }
                  }
                }
              }
            }
            JOINT Neck
            {
              OFFSET 5.0226 -0.0266342 0
              CHANNELS 3 Zrotation Xrotation Yrotation
              JOINT Head
              {
                OFFSET 6.69364 2.86102e-005 0
                CHANNELS 3 Zrotation Xrotation Yrotation
                End Site
                {
                  OFFSET 0 0 0
                }
              }
            }
          }
        }
      }
    }
  }
}
MOTION
Frames:	9
Frame Time:	0.0416667
-56.6015 97.3027 32.4242 -179.636 -88.8752 179.462 -172.251 3.66699 91.3554 -6.79249 5.48676 0.0185025 58.0839 2.01567 9.17934 31.7577 4.04296 -14.7919 177.07 3.94397 88.298 -12.2995 5.001 -1.23407 64.7208 -1.30094 -0.679323 29.0764 -0.49558 8.50152 -0.101141 7.21495 -90.0607 12.4439 -0.229749 -0.0947751 0.772966 -0.233697 -0.0845891 -21.7623 -0.190649 -0.159456 -1.74964 -0.190638 -0.159447 79.7295 -51.8943 -115.542 24.4591 -10.6037 5.35744 -3.56934 -12.6342 -37.0888 -7.22331 -0.713358 5.82116 -104.555 -43.7579 54.6466 -28.273 12.0066 2.08862 2.88423 11.5902 -29.7781 13.0073 1.31032 5.97704 3.96821 1.43076 7.31923 -6.41551 0.105122 1.15985 
-56.5776 97.3738 32.4752 -177.381 -88.8215 -178.33 -172.139 3.62722 91.3812 -6.73266 4.70827 -0.0706986 57.6559 1.45747 8.906 32.9415 5.11073 -16.857 176.85 4.50432 88.167 -13.3311 5.67941 -0.98478 63.9506 -0.983818 -0.485206 30.7159 -0.326881 9.6623 -0.0925244 7.22813 -90.0715 12.4175 -0.217781 -0.117812 0.746566 -0.222764 -0.108114 -21.7886 -0.172309 -0.177815 -1.776 -0.172309 -0.177818 80.0031 -51.5173 -115.291 24.6829 -10.5962 5.25917 -2.9441 -13.1413 -36.5588 -8.35209 -0.807955 5.81564 -104.746 -43.7316 54.3482 -28.4005 11.8402 1.98969 2.9447 11.5748 -29.6561 12.5259 1.22838 5.69284 4.97066 2.81617 7.14284 -4.99372 1.45745 0.71319 
-56.5543 97.3512 32.5316 -173.587 -88.8415 -174.591 -172.174 3.61803 91.3156 -6.74495 4.59578 -0.0557683 57.5662 1.42217 9.01738 33.0948 5.24913 -17.3913 176.798 4.21557 88.0953 -12.8806 5.21419 -1.00559 64.5256 -1.29461 -0.673872 29.7872 -0.445578 9.34636 -0.0782025 7.2224 -90.0539 12.429 -0.180941 -0.0869145 0.75809 -0.184589 -0.0788732 -21.7771 -0.146457 -0.137274 -1.76447 -0.146457 -0.13728 79.8983 -51.5844 -115.417 24.7268 -10.5368 5.39326 -3.16758 -12.8987 -36.6601 -8.23686 -0.797046 5.79973 -104.652 -43.5905 54.4196 -28.2742 12.077 1.80778 2.7261 11.537 -29.4166 12.7073 1.2317 5.59349 5.63098 2.4885 7.05586 -5.19129 1.11262 0.371616 
-56.5153 97.3402 32.5854 -171.835 -88.8654 -172.787 -172.046 3.57769 91.3721 -6.76484 4.25397 -0.144627 57.926 1.52485 8.26342 32.6634 4.85581 -15.9306 176.8 4.16172 88.1102 -12.7749 5.18826 -0.998305 64.6569 -1.32231 -0.689978 29.4411 -0.497732 9.39942 -0.0771188 7.20981 -90.0643 12.4542 -0.183765 -0.107258 0.783249 -0.188313 -0.0990781 -21.7519 -0.143038 -0.157532 -1.73929 -0.143044 -0.157543 79.9985 -51.6148 -115.26 24.6158 -10.6482 5.36171 -2.97101 -12.7959 -36.6981 -8.51534 -0.817611 5.76506 -104.677 -43.6444 54.4088 -28.0748 12.3078 1.79948 2.52505 11.3012 -29.4368 12.8856 1.2476 5.5961 5.70573 2.5082 7.12502 -5.06554 1.11739 0.17456 
-56.5072 97.3477 32.6452 -171.872 -88.8856 -172.798 -171.952 3.59251 91.4354 -6.76831 4.73207 -0.276807 57.9612 1.86595 9.08217 32.0352 4.34159 -16.3845 176.707 4.25837 88.0741 -13.0436 4.83565 -0.911606 64.5328 -1.30613 -0.678672 30.055 -0.360662 8.47953 -0.0826061 7.19026 -90.0699 12.4932 -0.197347 -0.116847 0.822322 -0.202292 -0.108062 -21.7129 -0.153107 -0.170754 -1.70023 -0.153112 -0.170771 80.0698 -51.5986 -115.163 24.7662 -10.6034 5.43455 -3.2072 -12.9134 -36.8219 -8.24061 -0.807769 5.96908 -104.757 -43.7145 54.3234 -28.0578 12.2958 1.81633 2.47948 11.3117 -29.3325 13.1159 1.2925 5.77392 5.6307 2.58284 6.98521 -5.20845 1.21636 0.506045 
-56.4446 97.327 32.7039 -178.16 -88.922 -178.971 -171.942 3.59222 91.5167 -6.74818 4.69123 -0.238799 57.9282 1.6792 8.73398 32.6407 4.84875 -16.4002 176.778 4.22374 88.1797 -13.0194 5.15074 -0.940326 64.8177 -1.50153 -0.796217 29.705 -0.4492 9.21862 -0.0917733 7.19267 -90.0964 12.4883 -0.228132 -0.166236 0.8174 -0.235233 -0.156039 -21.7178 -0.167631 -0.227113 -1.70513 -0.167628 -0.227114 80.1069 -51.4684 -115.159 24.7963 -10.5546 5.44698 -3.13181 -12.8027 -36.8388 -8.44702 -0.808091 5.7021 -105.029 -43.924 54.0184 -27.7754 12.2332 1.82338 2.65287 11.5082 -29.4911 12.76 1.23941 5.61785 5.81911 2.66573 7.43764 -5.45637 1.20465 0.200246 
-56.4008 97.3235 32.7185 170.755 -88.8948 170.026 -171.919 3.5972 91.5377 -6.78239 4.62907 -0.229375 58.2369 2.01083 8.7339 31.9722 4.2958 -16.5743 176.759 4.1947 88.2247 -13.0708 5.33401 -0.89069 64.7304 -1.48863 -0.788459 29.9426 -0.417234 9.24422 -0.113698 7.20853 -90.1047 12.4565 -0.275646 -0.177437 0.785613 -0.283178 -0.165136 -21.7496 -0.209579 -0.252074 -1.73695 -0.209574 -0.252074 79.9415 -51.4643 -115.401 24.702 -10.6221 5.35965 -2.98215 -12.9495 -36.6953 -8.70562 -0.832346 5.74102 -105.099 -43.8729 53.8894 -27.8006 12.2022 1.79739 2.73934 11.6433 -29.5273 12.9297 1.24903 5.57724 5.65941 2.60018 7.25745 -5.31594 1.1809 0.446626 
-56.3795 97.3306 32.8225 172.002 -88.9253 171.211 -171.94 3.55307 91.5124 -6.74345 4.62285 -0.227531 58.0257 1.78023 8.76623 32.6866 4.90808 -17.1602 176.8 4.20848 88.1903 -13.1276 5.34202 -0.983336 64.6652 -1.46372 -0.77316 30.122 -0.395662 9.33235 -0.11542 7.22188 -90.0863 12.4299 -0.270299 -0.141352 0.759018 -0.276262 -0.129324 -21.7762 -0.215326 -0.216054 -1.76359 -0.215324 -0.216056 80.145 -51.3706 -115.141 24.8984 -10.9082 5.11831 -3.2193 -13.2632 -36.5713 -9.0968 -0.851804 5.54136 -104.885 -43.8108 54.1774 -27.8374 12.3306 1.62583 2.60768 11.5025 -29.481 13.1533 1.24448 5.39996 5.12628 2.51218 7.11986 -5.19332 1.15371 0.50569 
-56.3643 97.3201 32.913 178.236 -88.9781 177.408 -171.951 3.4935 91.4154 -6.7225 4.55494 -0.233562 58.2422 2.06487 9.01541 31.9819 4.31248 -16.7998 176.766 4.16509 88.1458 -13.1595 4.81442 -0.999647 64.977 -1.60481 -0.855549 29.9553 -0.388458 8.74691 -0.112153 7.23799 -90.0702 12.3978 -0.256169 -0.110933 0.726846 -0.260798 -0.0995597 -21.8084 -0.21098 -0.182785 -1.79577 -0.21099 -0.1828 79.9711 -51.4638 -115.358 24.7074 -11.0028 5.08458 -3.18989 -13.1037 -36.6221 -8.84422 -0.834122 5.58603 -104.981 -43.8493 54.0539 -27.8713 12.2788 1.72984 2.55803 11.2191 -29.5991 13.2767 1.26752 5.48854 3.84787 2.38654 7.40445 -5.49427 1.07102 0.0501648 
